<svg width="17" height="17" viewBox="0 0 17 17" fill="none" xmlns="http://www.w3.org/2000/svg">
<g clip-path="url(#clip0_0_3135)">
<path d="M12.3982 0H4.60174C2.0643 0 0 2.0643 0 4.60174V12.3984C0 14.9357 2.0643 17 4.60174 17H12.3984C14.9357 17 17 14.9357 17 12.3984V4.60174C17 2.0643 14.9357 0 12.3982 0V0ZM16.0034 12.3984C16.0034 14.3861 14.3861 16.0034 12.3982 16.0034H4.60174C2.61383 16.0034 0.996611 14.3861 0.996611 12.3984V4.60174C0.996611 2.61383 2.61383 0.996611 4.60174 0.996611H12.3984C14.3861 0.996611 16.0034 2.61383 16.0034 4.60174V12.3984Z" fill="black"/>
<path d="M8.49998 3.85181C5.93686 3.85181 3.85168 5.93698 3.85168 8.50011C3.85168 11.0632 5.93686 13.1484 8.49998 13.1484C11.0631 13.1484 13.1483 11.0632 13.1483 8.50011C13.1483 5.93698 11.0631 3.85181 8.49998 3.85181ZM8.49998 12.1518C6.48653 12.1518 4.8483 10.5137 4.8483 8.50011C4.8483 6.48665 6.48653 4.84842 8.49998 4.84842C10.5136 4.84842 12.1517 6.48665 12.1517 8.50011C12.1517 10.5137 10.5136 12.1518 8.49998 12.1518Z" fill="black"/>
<path d="M13.2594 2.20093C12.502 2.20093 11.8859 2.81713 11.8859 3.57445C11.8859 4.33189 12.502 4.94809 13.2594 4.94809C14.0169 4.94809 14.6331 4.33189 14.6331 3.57445C14.6331 2.817 14.0169 2.20093 13.2594 2.20093ZM13.2594 3.95135C13.0517 3.95135 12.8825 3.78222 12.8825 3.57445C12.8825 3.36654 13.0517 3.19754 13.2594 3.19754C13.4673 3.19754 13.6365 3.36654 13.6365 3.57445C13.6365 3.78222 13.4673 3.95135 13.2594 3.95135Z" fill="black"/>
</g>
<defs>
<clipPath id="clip0_0_3135">
<rect width="17" height="17" fill="white"/>
</clipPath>
</defs>
</svg>
